<svg xmlns="http://www.w3.org/2000/svg" data-name="Layer 1" viewBox="0 0 512 512"><path fill="#ffcd85" d="M512,489.98916,389.01,512,265.25,356.58A41.01936,41.01936,0,0,1,256,330.64V22.57007a14.99219,14.99219,0,0,1,4.42-10.65015,14.13341,14.13341,0,0,1,1.77-1.51A15.04845,15.04845,0,0,1,285,16.82007L366.23,183.64a44.9729,44.9729,0,0,1,2.83,24.29993L358.26,305.02A14.97774,14.97774,0,0,0,361.71,317.2Z"/><path fill="#ffcd85" d="M299.35552,273.14209l-6.82706-63.94573a30,30,0,0,0-29.83047-26.8152H256V288.628"/><path fill="#ffc166" d="M292.52844,209.19627A30,30,0,0,0,262.698,182.3811H256v1.16626a30.0096,30.0096,0,0,1,21.52844,25.64893l6.82709,63.9458h0a13.48379,13.48379,0,0,0,13.40759-14.91522Z"/><rect width="40.714" height="165.848" x="340.954" y="310.187" fill="#ffe966" rx="20.357" transform="rotate(-125.043 361.311 393.111)"/><path fill="#ffe236" d="M429.21075,345.50781l-.00006-.00012a20.25648,20.25648,0,0,0-11.88928-8.07849,20.34877,20.34877,0,0,1-8.09222,21.43652L306.764,430.69507a20.28767,20.28767,0,0,1-16.463,3.09814,20.32723,20.32723,0,0,0,31.463,11.90186l102.46515-71.82935A20.357,20.357,0,0,0,429.21075,345.50781Z"/><rect width="40.714" height="165.848" x="364.332" y="343.521" fill="#ffe966" rx="20.357" transform="rotate(-125.043 384.689 426.445)"/><path fill="#ffe236" d="M452.58826,378.84155h0a20.25655,20.25655,0,0,0-11.88929-8.07861,20.34893,20.34893,0,0,1-8.09222,21.43664L330.14154,464.02905a20.28827,20.28827,0,0,1-16.463,3.0979,20.2698,20.2698,0,0,0,3.11066,6.92139h.00006a20.35715,20.35715,0,0,0,28.35223,4.98071l102.46521-71.82947A20.3571,20.3571,0,0,0,452.58826,378.84155Z"/><path fill="#ffcd85" d="M256,22.57007V330.64a41.01936,41.01936,0,0,1-9.25,25.94L117.34684,512,0,491.29232,150.29,317.2A14.97774,14.97774,0,0,0,153.74,305.02l-10.8-97.08008A44.9729,44.9729,0,0,1,145.77,183.64L227,16.82007a15.04845,15.04845,0,0,1,22.81-6.41016,14.13341,14.13341,0,0,1,1.77,1.51A14.99219,14.99219,0,0,1,256,22.57007Z"/><path fill="#ffcd85" d="M212.64448,273.14209l6.82706-63.94573a30,30,0,0,1,29.83047-26.8152H256V288.628"/><path fill="#ffc166" d="M227.64447,273.14209l6.82709-63.9458A30.0096,30.0096,0,0,1,256,183.54736V182.3811h-6.698a30,30,0,0,0-29.83044,26.81517l-5.23469,49.0306a13.48379,13.48379,0,0,0,13.40759,14.91522Z"/><rect width="40.714" height="165.848" x="130.332" y="310.187" fill="#ffe966" rx="20.357" transform="rotate(-54.957 150.689 393.111)"/><path fill="#ffe236" d="M213.60675,412.35657,111.14154,340.5271a20.34384,20.34384,0,0,0-26.33624,2.56836l98.80145,69.26111a20.22142,20.22142,0,0,1,2.96552,30.77026l3.66369,2.56824a20.35712,20.35712,0,1,0,23.37079-33.3385Z"/><rect width="40.714" height="165.848" x="106.954" y="343.521" fill="#ffe966" rx="20.357" transform="rotate(-54.957 127.311 426.445)"/><path fill="#ffe236" d="M190.22919,445.69043,87.764,373.86108a20.34368,20.34368,0,0,0-26.33624,2.56824l98.80139,69.26111a20.357,20.357,0,0,1,4.98156,28.35791h-.00006a20.39594,20.39594,0,0,1-2.016,2.41235l3.66376,2.56836a20.35715,20.35715,0,0,0,28.35223-4.98071h.00006A20.357,20.357,0,0,0,190.22919,445.69043Z"/><path fill="#313440" d="M510.17871,477.82031l-56.675-65.6914a27.834,27.834,0,0,0-13.71313-49.167c.0664-.314.13427-.62744.18994-.94531a27.85646,27.85646,0,0,0-43.42676-27.63086l-6.29932,4.416-22.86474-26.5a7.45387,7.45387,0,0,1-1.72656-6.07813c.01953-.124.03711-.249.05078-.374l10.78027-96.90625a52.44771,52.44771,0,0,0-3.33105-28.165q-.0879-.21387-.18946-.42187L291.834,13.72363A22.523,22.523,0,0,0,255.99927,5.813,22.52161,22.52161,0,0,0,220.166,13.72363L139.02637,180.35645q-.10108.208-.18946.42187a52.44771,52.44771,0,0,0-3.331,28.165l10.78027,96.90625c.01367.125.03125.25.05078.374a7.45358,7.45358,0,0,1-1.72558,6.07715l-22.86548,26.50049-6.29858-4.41553A27.85686,27.85686,0,0,0,72.01953,362.0166c.05591.31836.124.63233.19019.94678a27.83535,27.83535,0,0,0-13.71338,49.16553l-56.675,65.6914a7.50013,7.50013,0,0,0,11.35742,9.79883l57.61108-66.77685,71.24488,49.94433L117.9834,499.7041a7.50029,7.50029,0,0,0,11.5332,9.5918l24.843-29.86914,8.19409,5.74414A27.85646,27.85646,0,0,0,205.98047,457.54c-.05615-.31983-.12451-.63574-.19116-.95215a27.83976,27.83976,0,0,0,12.12182-50.37305l-1.69311-1.187,36.34057-43.70263a48.24442,48.24442,0,0,0,3.43995-4.792,47.98127,47.98127,0,0,0,3.4165,4.75879l35.697,44.20508-1.02417.71777a27.834,27.834,0,0,0,12.1228,50.37354c-.06665.31641-.135.63183-.19116.95166a27.86532,27.86532,0,0,0,43.42676,27.63086l6.38281-4.47461,23.02637,28.51562a7.49992,7.49992,0,0,0,11.66992-9.42382l-22.3855-27.72168,73.07032-51.22412,57.61108,66.77685a7.50013,7.50013,0,1,0,11.35742-9.79883Zm-321.1084-8.07812a12.87376,12.87376,0,0,1-17.90625,3.14551L68.69824,401.05762A12.85675,12.85675,0,0,1,83.457,380.00146l.00879.00635,8.55859,5.99951c.02588.01807.05079.03663.07666.05372l82.67383,57.95507c.07544.05371.1499.1084.22754.15918L185.929,451.835a12.85787,12.85787,0,0,1,3.14135,17.90723Zm23.377-33.334a12.8717,12.8717,0,0,1-17.90625,3.14551l-93.99756-65.89258c-.04053-.02832-.07959-.05713-.12061-.08447l-8.34668-5.85107A12.8575,12.8575,0,0,1,106.83691,346.669l11.76343,8.24609c.06543.04785.13111.09375.19776.13867l90.50268,63.44434a12.85461,12.85461,0,0,1,3.14649,17.91015ZM248.5,174.89941a37.42142,37.42142,0,0,0-36.48633,33.501l-6.82715,63.94629a7.50036,7.50036,0,0,0,14.916,1.5918l6.82715-63.94629A22.45552,22.45552,0,0,1,248.5,189.89453V330.63965a33.5558,33.5558,0,0,1-7.5166,21.14551l-37.08911,44.60351-69.80347-48.93359,21.87891-25.35645a22.42387,22.42387,0,0,0,5.20605-18.07519l-10.78125-96.91211c-.01367-.1211-.03027-.24121-.04883-.36133a37.45441,37.45441,0,0,1,2.27344-20.0459l81.124-166.60058c.06739-.1377.12989-.27832.18848-.41993A7.57271,7.57271,0,0,1,248.5,22.57031ZM271.05859,351.835A33.5927,33.5927,0,0,1,263.5,330.63965V189.89453a22.45552,22.45552,0,0,1,21.57031,20.09766l6.82715,63.94629a7.50036,7.50036,0,0,0,14.916-1.5918l-6.82715-63.94629A37.42142,37.42142,0,0,0,263.5,174.89941V22.57031a7.57015,7.57015,0,0,1,14.56836-2.88672c.05859.14161.12109.28223.18848.41993l81.124,166.60156A37.45085,37.45085,0,0,1,361.6543,206.75c-.01856.12012-.03516.24023-.04883.36133l-10.78125,96.91211a22.42416,22.42416,0,0,0,5.207,18.07617l21.87793,25.356L307.42285,396.8667Zm28.49414,84.57324a12.85557,12.85557,0,0,1,3.14551-17.91015l90.51441-63.45117c.05957-.04053.1184-.08155.177-.124l11.77441-8.2539a12.8571,12.8571,0,0,1,14.76074,21.05566l-92.44116,64.80176c-.05835.03857-.11426.08008-.17138.12011l-9.85328,6.90723A12.86789,12.86789,0,0,1,299.55273,436.4082ZM448.585,392.75488a12.77151,12.77151,0,0,1-5.28418,8.30274L340.83691,472.8877A12.85738,12.85738,0,0,1,326.071,451.835l102.46412-71.82812.00537-.00391.00146-.001a12.85791,12.85791,0,0,1,20.043,12.75293Z"/></svg>